# xmcd
#
# Track frame offsets:
# 150
# 13657
# 26882
# 40927
# 53835
# 73422
# 90550
# 103692
# 118565
# 132720
#
# Disc length: 1986 seconds
#
#
# Revision: 2
# Processed by: cddbd v1.5.1PL0 Copyright (c) Steve Scherf et al.
# Submitted via: FreeRIP 2.53 
#
DISCID=8f07c00a
DTITLE=Brooks And Dunn - Brand New Man
DYEAR=1900
DGENRE=
TTITLE0=Brand New Man
TTITLE1=My Next Broken Heart
TTITLE2=Cool Drink Of Water
TTITLE3=Cheating On The Blues
TTITLE4=Neon Moon
TTITLE5=Lost And Found
TTITLE6=I've Got A Lot To Learn
TTITLE7=Boot Scootin' Boogie
TTITLE8=I'm No Good
TTITLE9=Still In Love With You
EXTD=
EXTT0=
EXTT1=
EXTT2=
EXTT3=
EXTT4=
EXTT5=
EXTT6=
EXTT7=
EXTT8=
EXTT9=
PLAYORDER=
